HIERARCHY
ROOT Hips
{
	OFFSET -3.958830 18.904000 13.208200
	CHANNELS 6 Xposition Yposition Zposition Zrotation Yrotation Xrotation 
	JOINT LHipJoint
	{
		OFFSET 0.000000 0.000000 0.000000
		CHANNELS 3 Zrotation Yrotation Xrotation
		JOINT LeftUpLeg
		{
			OFFSET 1.800000 -1.400000 0.085000
			CHANNELS 3 Zrotation Yrotation Xrotation
			JOINT LeftLeg
			{
				OFFSET 2.215000 -6.000000 0.000000
				CHANNELS 3 Zrotation Yrotation Xrotation
				JOINT LeftFoot
				{
					OFFSET 2.500000 -6.900000 0.000000
					CHANNELS 3 Zrotation Yrotation Xrotation
					JOINT LeftToeBase
					{
						OFFSET 0.200000 -0.500000 1.950000
						CHANNELS 3 Zrotation Yrotation Xrotation
						End Site
						{
							OFFSET 0.000000 0.000000 0.000000
						}
					}
				}
			}
		}
	}
	JOINT RHipJoint
	{
		OFFSET 0.000000 0.000000 0.000000
		CHANNELS 3 Zrotation Yrotation Xrotation
		JOINT RightUpLeg
		{
			OFFSET -1.800000 -1.400000 0.085000
			CHANNELS 3 Zrotation Yrotation Xrotation
			JOINT RightLeg
			{
				OFFSET -2.215000 -6.000000 0.000000
				CHANNELS 3 Zrotation Yrotation Xrotation
				JOINT RightFoot
				{
					OFFSET -2.500000 -6.900000 0.000000
					CHANNELS 3 Zrotation Yrotation Xrotation
					JOINT RightToeBase
					{
						OFFSET -0.200000 -0.500000 1.950000
						CHANNELS 3 Zrotation Yrotation Xrotation
						End Site
						{
							OFFSET 0.000000 0.000000 0.000000
						}
					}
				}
			}
		}
	}
	JOINT LowerBack
	{
		OFFSET 0.000000 0.000000 0.000000
		CHANNELS 3 Zrotation Yrotation Xrotation
		JOINT Spine
		{
			OFFSET -0.087000 1.940000 -0.288900
			CHANNELS 3 Zrotation Yrotation Xrotation
			JOINT Spine1
			{
				OFFSET 0.000000 1.950000 0.060000
				CHANNELS 3 Zrotation Yrotation Xrotation
				JOINT Neck
				{
					OFFSET 0.000000 0.000000 0.000000
					CHANNELS 3 Zrotation Yrotation Xrotation
					JOINT Neck1
					{
						OFFSET 0.000000 1.600000 0.340000
						CHANNELS 3 Zrotation Yrotation Xrotation
						JOINT Head
						{
							OFFSET 0.000000 1.667000 -0.240000
							CHANNELS 3 Zrotation Yrotation Xrotation
							End Site
							{
								OFFSET 0.000000 0.000000 0.000000
							}
						}
					}
				}
				JOINT LeftShoulder
				{
					OFFSET 0.000000 0.000000 0.000000
					CHANNELS 3 Zrotation Yrotation Xrotation
					JOINT LeftArm
					{
						OFFSET 2.700000 1.550000 -0.730000
						CHANNELS 3 Zrotation Yrotation Xrotation
						JOINT LeftForeArm
						{
							OFFSET 5.450000 0.000000 0.000000
							CHANNELS 3 Zrotation Yrotation Xrotation
							JOINT LeftHand
							{
								OFFSET 3.450000 0.000000 0.000000
								CHANNELS 3 Zrotation Yrotation Xrotation
								JOINT LeftHandIndex1
								{
									OFFSET 0.750000 0.000000 0.000000
									CHANNELS 3 Zrotation Yrotation Xrotation
									End Site
									{
										OFFSET 0.000000 0.000000 0.000000
									}
								}
							}
						}
					}
				}
				JOINT RightShoulder
				{
					OFFSET 0.000000 0.000000 0.000000
					CHANNELS 3 Zrotation Yrotation Xrotation
					JOINT RightArm
					{
						OFFSET -2.700000 1.550000 -0.730000
						CHANNELS 3 Zrotation Yrotation Xrotation
						JOINT RightForeArm
						{
							OFFSET -5.450000 0.000000 0.000000
							CHANNELS 3 Zrotation Yrotation Xrotation
							JOINT RightHand
							{
								OFFSET -3.450000 0.000000 0.000000
								CHANNELS 3 Zrotation Yrotation Xrotation
								JOINT RightHandIndex1
								{
									OFFSET -0.750000 0.000000 0.000000
									CHANNELS 3 Zrotation Yrotation Xrotation
									End Site
									{
										OFFSET 0.000000 0.000000 0.000000
									}
								}
							}
						}
					}
				}
			}
		}
	}
}
MOTION
Frames: 13
Frame Time: 0.016667
19.949480 17.081650 -14.468330 -1.494649 -5.967241 4.974940 -15.566813 12.788812 2.572272 11.928827 -1.138426 -10.298776 -9.764740 6.553966 12.850524 -1.022240 4.864572 2.291047 0.696960 0.501530 0.707090 17.805224 -10.933368 2.960911 -17.245216 1.091831 -22.856120 7.514057 -3.807346 5.866875 0.320832 -3.358484 2.863521 0.937960 -0.177700 0.428230 -2.242307 0.260155 -6.802955 -3.887552 2.622799 10.402231 7.238699 3.526657 -5.159715 10.541809 10.750493 -8.553335 24.297179 -28.445699 15.943892 -3.396460 -19.109460 -13.745310 -31.605414 7.401043 1.511944 -34.641388 18.673104 -2.679870 -72.117202 -45.123700 29.167847 -2.939592 3.569484 0.716150 0.014500 0.605220 0.429320 11.001008 -5.891060 1.992306 9.983950 5.831998 -3.762973 -34.730878 16.431789 -4.960041 2.868369 -1.680262 -0.638070 -0.133090 -0.764970 0.081000 
19.898040 17.075100 -14.416590 -1.528261 -6.173714 5.324643 -15.548372 12.735541 2.606019 12.316363 -1.176165 -9.773882 -10.074999 6.435832 11.803242 -1.039653 4.915137 2.265510 0.666430 0.431500 0.704620 17.824063 -10.924079 2.980433 -16.696678 1.095752 -22.740057 7.885537 -3.828980 5.484671 0.324553 -3.354547 2.854208 0.908900 -0.181060 0.450100 -2.289283 0.312206 -6.843672 -3.322477 2.474027 9.808582 6.677926 3.569569 -5.786126 10.454666 10.846327 -8.217266 24.374211 -29.338874 15.710660 -3.821530 -19.770160 -13.395380 -30.846124 8.201041 1.042995 -34.014924 18.445901 -2.067957 -72.019256 -44.204208 28.890456 -2.956588 3.582897 0.733290 0.010390 0.602730 0.416190 10.377237 -7.374933 2.179953 10.994239 3.038484 -3.626170 -35.354240 18.449358 -5.175498 2.854079 -1.674808 -0.652950 -0.146060 -0.730610 0.065890 
19.795350 17.078420 -14.336770 -1.819605 -8.125261 5.982413 -15.505013 12.693294 2.678521 12.830965 -1.152058 -8.506254 -10.136681 6.134137 9.899000 -1.044029 4.974760 2.260696 0.573090 0.294920 0.677750 17.857224 -10.989636 3.001287 -14.894923 1.308021 -23.511067 7.740187 -3.811866 5.795848 0.372188 -3.230803 2.909476 0.842940 -0.163270 0.493810 -2.353949 0.501575 -6.922783 -2.251869 2.308882 9.136555 5.120278 3.791442 -7.680619 10.537193 10.887119 -7.788352 24.295816 -29.919762 16.013916 -6.513910 -19.744710 -11.288710 -30.380161 9.842198 0.407959 -32.029107 19.329262 -1.260279 -72.349162 -44.409271 29.714499 -3.003705 3.607597 0.732090 0.054420 0.588450 0.381720 9.466928 -9.623333 2.417449 12.990248 0.089126 -3.411095 -36.456906 16.551877 -4.417819 2.880086 -1.670963 -0.677280 -0.168420 -0.667600 0.043230 
19.666270 17.075280 -14.243900 -1.845178 -10.243076 6.919367 -15.449056 12.683104 2.722684 13.017430 -1.235752 -7.700109 -9.831443 5.858524 8.702523 -0.991146 4.912699 2.325659 0.529340 0.259370 0.642600 17.905691 -11.041625 3.029999 -13.028730 1.482205 -24.391275 7.140099 -3.619658 5.884861 0.420551 -3.074186 3.008936 0.809480 -0.141810 0.484260 -2.454194 0.601471 -7.003253 -1.242995 1.886262 8.437855 3.941222 3.652724 -9.577469 10.089762 10.727973 -6.963836 23.290981 -29.594022 16.017005 -7.341430 -19.531390 -9.462510 -28.748408 12.049769 -0.049229 -30.532835 20.168459 -0.125468 -76.322756 -45.313538 33.286464 -3.016522 3.655936 0.684210 0.087980 0.555610 0.380700 8.510579 -12.563304 2.040024 13.891234 -2.479221 -2.967277 -37.119941 15.433752 -3.693597 2.940886 -1.712053 -0.669940 -0.188240 -0.672040 0.057680 
19.529640 17.093110 -14.139160 -1.774498 -12.633295 8.019304 -15.423848 12.705314 2.734110 12.914410 -1.351675 -7.014019 -8.991258 5.496185 7.765866 -0.942298 4.723666 2.416402 0.553490 0.308230 0.691640 17.923432 -11.042237 3.108807 -11.606581 1.705843 -25.453285 7.396646 -3.547946 6.012215 0.431318 -2.959063 3.068551 0.805610 -0.204050 0.456590 -2.454105 0.604423 -7.089490 -0.697027 1.287159 7.626607 3.098770 3.535349 -12.784643 10.147535 10.554960 -5.692695 22.488188 -29.037005 16.762454 -9.460590 -18.189600 -8.083100 -27.109673 15.889257 -1.176911 -28.546200 20.785012 1.251998 -76.831134 -44.781621 34.292375 -2.937690 3.732174 0.647680 0.085220 0.557560 0.360600 6.788780 -16.784168 1.326686 15.860800 -3.261488 -2.416305 -38.242718 15.443841 -3.299502 3.028089 -1.781641 -0.630890 -0.240810 -0.730230 0.043660 
19.396740 17.097790 -14.064940 -1.975660 -15.231329 8.527528 -15.347173 12.784204 2.710816 12.818411 -1.424864 -6.427435 -7.806445 5.228030 7.684467 -0.878164 4.521608 2.528078 0.595090 0.394240 0.726270 17.985908 -11.112681 3.153815 -9.613898 1.935779 -26.107269 6.670451 -3.345851 6.456840 0.439688 -2.791224 3.167394 0.815810 -0.241670 0.413550 -2.585549 0.601621 -7.176519 0.950379 0.372934 7.339016 1.412997 2.636142 -14.173431 10.110288 10.360577 -4.188279 21.493995 -27.712648 17.898175 -10.192510 -16.716440 -7.240110 -24.951067 18.879343 -1.897258 -27.867876 21.372420 1.232972 -76.272953 -45.473147 34.973657 -2.868494 3.787691 0.597430 0.083680 0.554360 0.366080 5.114399 -20.843902 0.544501 18.238258 -3.850538 -2.333038 -38.353629 18.999290 -3.954941 3.093459 -1.865787 -0.584440 -0.267970 -0.805150 0.050670 
19.246480 17.113560 -13.989570 -1.728093 -18.811572 8.495189 -15.231872 12.895138 2.694636 12.244352 -1.278812 -5.166068 -6.733346 5.097981 7.843837 -0.590318 4.190953 2.755775 0.653570 0.540970 0.746550 18.071012 -11.254636 3.204999 -7.578260 1.999026 -26.192710 5.259774 -2.951373 6.582710 0.405323 -2.571530 3.337458 0.760550 -0.314590 0.306700 -2.771374 0.687316 -7.304534 2.242381 -0.496325 7.503871 -0.790792 1.649439 -15.878593 9.668579 10.042190 -3.117822 20.089238 -25.448093 20.834864 -10.367930 -14.663950 -4.738980 -22.502999 21.602097 -2.149317 -26.341560 22.551973 0.855742 -75.042928 -45.027901 34.316664 -2.676502 3.934840 0.461020 0.039430 0.537540 0.399490 3.744450 -24.300068 0.342081 19.621028 -6.292893 -2.450514 -37.909618 24.256736 -4.887101 3.201714 -2.018414 -0.432670 -0.323520 -0.942080 0.094660 
19.085720 17.136550 -13.917970 -1.524656 -23.592400 7.303317 -15.079034 13.028157 2.725311 11.832770 -0.873702 -2.460215 -6.314452 5.310929 8.222181 -0.100394 3.911187 3.014356 0.805950 0.818910 0.768560 18.184326 -11.430659 3.226949 -5.531921 1.787450 -24.990317 3.558643 -2.469729 6.486606 0.253227 -2.336161 3.510351 0.680920 -0.431840 0.151680 -3.040741 0.759638 -7.475374 3.902130 -1.336699 8.350899 -3.285532 0.455615 -17.152631 9.037439 9.354302 -1.507260 18.047072 -21.877217 26.174850 -7.972690 -12.623690 -3.124320 -21.587047 24.073845 -2.137857 -24.277517 24.361806 0.121976 -76.269998 -48.951749 37.971886 -2.421112 4.290436 0.265700 -0.084740 0.500830 0.443720 4.651081 -27.527210 -0.372853 18.925853 -9.609215 -2.665383 -38.073577 29.501786 -5.885771 3.314581 -2.257268 -0.138470 -0.374800 -1.081080 0.148520 
18.925910 17.161540 -13.848540 -1.155992 -28.128199 5.832635 -14.890476 13.203594 2.773041 11.358794 -0.459577 -0.297514 -6.233652 5.802206 9.731888 0.316433 3.847893 3.149666 0.848500 0.919190 0.715490 18.313483 -11.563039 3.303790 -4.249119 1.446498 -22.782774 2.506271 -2.141081 5.209726 0.070152 -2.152048 3.631376 0.523420 -0.496800 0.066530 -3.433456 0.659251 -7.719075 6.414970 -2.532996 9.564052 -5.519270 -1.012274 -17.395770 7.468933 7.462058 -0.853327 13.545390 -18.172016 32.233119 -4.564530 -11.739750 -3.830630 -19.774148 25.226038 -1.642501 -25.160330 26.795676 -1.663545 -74.468092 -52.003952 38.437953 -2.316542 4.486513 0.150280 -0.217010 0.481590 0.448230 5.686144 -28.196308 -0.613933 18.896236 -13.692950 -3.676986 -35.650413 31.112585 -5.574111 3.343670 -2.299783 0.114590 -0.362020 -1.053140 0.177090 
18.760100 17.211630 -13.798230 0.043318 -32.791894 3.187398 -14.692311 13.558623 2.939874 10.563914 0.020168 1.726186 -6.583994 6.572935 12.080388 0.714610 4.003183 3.160391 0.794360 0.869750 0.562470 18.407466 -11.631349 3.371924 -4.073050 0.928040 -20.320660 1.758850 -2.056772 4.631398 -0.070659 -2.030162 3.716629 0.299560 -0.506840 0.029400 -3.844076 0.027778 -8.047466 8.895678 -4.832281 12.014934 -7.546452 -3.209514 -17.603006 4.452445 2.318584 -1.217726 2.942045 -11.867056 40.595851 1.758700 -11.892440 -4.728540 -18.846000 25.059222 -0.419242 -27.053402 32.102928 -5.002123 -68.572481 -56.462072 35.931023 -2.208890 4.679931 0.083700 -0.348220 0.445080 0.428520 9.656061 -24.831664 -0.730930 16.011051 -18.095676 -4.257371 -35.904363 31.820621 -5.508919 3.372113 -2.252146 0.329550 -0.363710 -0.922640 0.217880 
18.571230 17.258810 -13.737770 0.367979 -38.204886 2.530035 -14.591582 13.789202 3.038537 9.948767 0.192054 2.735663 -6.711690 7.043591 13.711933 0.845491 4.217160 3.134420 0.698640 0.735540 0.471980 18.466722 -11.542399 3.468214 -2.840818 0.969925 -18.884679 1.110364 -1.873889 3.692716 -0.087551 -1.958182 3.755886 0.171870 -0.460980 -0.003780 -4.142821 -0.572374 -8.147635 11.146666 -6.605675 12.168125 -9.245915 -4.829813 -18.691578 2.656893 -2.328411 -2.186509 -6.134210 -6.621568 44.342070 4.756250 -11.394950 -3.382380 -18.471260 25.132357 0.481948 -27.247300 37.513476 -7.310084 -60.288772 -58.312455 30.697104 -2.049456 4.787758 0.097210 -0.382610 0.382170 0.377960 11.742785 -21.747135 -0.052785 13.353465 -21.239778 -4.177358 -33.499694 34.973194 -5.477642 3.356578 -2.246515 0.342940 -0.354240 -0.824790 0.212890 
18.376350 17.314800 -13.676920 0.707904 -42.560097 2.200946 -14.600439 14.022332 3.134478 9.792039 0.191562 2.897726 -7.414641 7.740157 15.872659 0.946427 4.498728 3.016253 0.668430 0.687140 0.439580 18.419358 -11.406202 3.567752 -1.724597 1.006906 -17.123290 0.542983 -1.736037 2.536933 -0.149372 -1.914568 3.775159 0.093560 -0.485160 0.006480 -4.044305 -1.220441 -8.293110 11.478092 -6.755384 12.372288 -9.237277 -4.634256 -21.015896 2.215897 -4.835794 -3.245921 -11.807608 -3.217738 48.168531 5.350340 -10.359780 -3.579570 -18.656606 26.004904 0.673841 -24.034296 40.954832 -6.695622 -58.462683 -60.010625 30.140234 -1.893374 5.001347 0.113530 -0.423790 0.385280 0.328360 12.736899 -20.532614 0.815115 11.118398 -24.591240 -3.518131 -31.158723 34.374222 -4.448892 3.385094 -2.227795 0.401950 -0.354870 -0.734330 0.190100 
18.224270 17.331820 -13.627050 -0.797472 -46.101581 3.964183 -14.602854 14.183035 3.134308 10.285547 -0.223114 1.737590 -8.056070 8.416288 18.395312 0.955521 4.817716 2.902240 0.608860 0.601860 0.423810 18.416343 -11.210316 3.640632 0.150941 1.307569 -16.511696 0.616899 -1.703267 2.364689 -0.146166 -1.858420 3.793269 0.045410 -0.473210 0.001160 -4.120066 -1.789452 -8.252957 14.363526 -7.022907 11.856556 -10.215782 -4.403771 -22.375894 2.366062 -6.061359 -3.741668 -14.619286 -1.677983 48.032988 3.816010 -9.002330 -3.081450 -18.183821 26.880721 0.300707 -22.739489 41.499582 -6.488565 -56.632778 -62.802281 30.616600 -1.836781 5.131146 0.132300 -0.416220 0.360480 0.279640 11.619208 -20.361005 1.802861 12.349629 -26.485867 -3.549253 -30.786480 31.531434 -3.572782 3.410254 -2.151810 0.379950 -0.338490 -0.667980 0.156280 
